<svg width="90" height="62" viewBox="0 0 90 62" fill="none" xmlns="http://www.w3.org/2000/svg">
<g clip-path="url(#clip0_1959_32289)">
<path fill-rule="evenodd" clip-rule="evenodd" d="M53.3134 40.0177H36.7043C33.6016 40.013 30.6272 38.7784 28.4333 36.5844C26.2393 34.3905 25.0047 31.4161 25 28.3134V11.7043C25.0047 8.60156 26.2393 5.62725 28.4333 3.43328C30.6272 1.23932 33.6016 0.00468338 36.7043 0H53.3134C56.4161 0.00468338 59.3905 1.23932 61.5844 3.43328C63.7784 5.62725 65.013 8.60156 65.0177 11.7043V28.3134C65.013 31.4161 63.7784 34.3905 61.5844 36.5844C59.3905 38.7784 56.4161 40.013 53.3134 40.0177ZM36.7043 3.73617C34.5925 3.74084 32.5684 4.58184 31.0751 6.07514C29.5818 7.56845 28.7408 9.59245 28.7362 11.7043V28.3134C28.7408 30.4253 29.5818 32.4493 31.0751 33.9426C32.5684 35.4359 34.5925 36.2769 36.7043 36.2815H53.3134C55.4253 36.2769 57.4493 35.4359 58.9426 33.9426C60.4359 32.4493 61.2769 30.4253 61.2815 28.3134V11.7043C61.2769 9.59245 60.4359 7.56845 58.9426 6.07514C57.4493 4.58184 55.4253 3.74084 53.3134 3.73617H36.7043ZM55.6861 11.828C57.065 11.828 58.1828 10.7102 58.1828 9.33132C58.1828 7.95244 57.065 6.83464 55.6861 6.83464C54.3072 6.83464 53.1894 7.95244 53.1894 9.33132C53.1894 10.7102 54.3072 11.828 55.6861 11.828ZM39.2638 28.6069C40.9644 29.7432 42.9637 30.3496 45.0089 30.3496C47.75 30.345 50.3775 29.254 52.3158 27.3157C54.2541 25.3774 55.3451 22.7499 55.3498 20.0088C55.3498 17.9636 54.7433 15.9643 53.607 14.2637C52.4707 12.5632 50.8557 11.2378 48.9662 10.4551C47.0766 9.6724 44.9974 9.46762 42.9915 9.86663C40.9856 10.2656 39.143 11.2505 37.6968 12.6967C36.2506 14.1429 35.2657 15.9855 34.8667 17.9914C34.4677 19.9973 34.6725 22.0765 35.4552 23.9661C36.2379 25.8556 37.5633 27.4706 39.2638 28.6069ZM41.3395 14.5172C42.4257 13.7915 43.7026 13.4041 45.0089 13.4041C46.7606 13.4041 48.4405 14.0999 49.6791 15.3386C50.9177 16.5772 51.6136 18.2571 51.6136 20.0088C51.6136 21.3151 51.2262 22.592 50.5005 23.6782C49.7748 24.7643 48.7433 25.6108 47.5364 26.1107C46.3296 26.6106 45.0016 26.7414 43.7204 26.4866C42.4392 26.2317 41.2624 25.6027 40.3387 24.679C39.415 23.7553 38.786 22.5785 38.5311 21.2973C38.2763 20.0161 38.4071 18.6881 38.907 17.4813C39.4069 16.2744 40.2534 15.2429 41.3395 14.5172Z" fill="#FAFAFA"/>
</g>
<path d="M7.58036 50.2727V59H5.99939V50.2727H7.58036ZM11.0068 55.1648V59H9.46418V52.4545H10.9386V53.5668H11.0153C11.1659 53.2003 11.4059 52.9091 11.7355 52.6932C12.0679 52.4773 12.4784 52.3693 12.967 52.3693C13.4187 52.3693 13.8122 52.4659 14.1474 52.6591C14.4855 52.8523 14.7468 53.1321 14.9315 53.4986C15.119 53.8651 15.2113 54.3097 15.2085 54.8324V59H13.6659V55.071C13.6659 54.6335 13.5522 54.2912 13.325 54.044C13.1005 53.7969 12.7895 53.6733 12.3917 53.6733C12.1218 53.6733 11.8818 53.733 11.6716 53.8523C11.4642 53.9687 11.3008 54.1378 11.1815 54.3594C11.065 54.581 11.0068 54.8494 11.0068 55.1648ZM22.19 54.1847L20.7837 54.3381C20.744 54.196 20.6743 54.0625 20.5749 53.9375C20.4783 53.8125 20.3476 53.7116 20.1829 53.6349C20.0181 53.5582 19.8164 53.5199 19.5778 53.5199C19.2567 53.5199 18.9868 53.5895 18.7681 53.7287C18.5522 53.8679 18.4457 54.0483 18.4485 54.2699C18.4457 54.4602 18.5153 54.6151 18.6573 54.7344C18.8022 54.8537 19.0408 54.9517 19.3732 55.0284L20.4897 55.267C21.109 55.4006 21.5692 55.6122 21.8704 55.902C22.1743 56.1918 22.3278 56.571 22.3306 57.0398C22.3278 57.4517 22.207 57.8153 21.9684 58.1307C21.7326 58.4432 21.4045 58.6875 20.984 58.8636C20.5636 59.0398 20.0806 59.1278 19.5351 59.1278C18.734 59.1278 18.0891 58.9602 17.6005 58.625C17.1118 58.2869 16.8207 57.8168 16.7269 57.2145L18.2312 57.0696C18.2993 57.3651 18.4442 57.5881 18.6658 57.7386C18.8874 57.8892 19.1758 57.9645 19.5309 57.9645C19.8974 57.9645 20.1914 57.8892 20.413 57.7386C20.6374 57.5881 20.7496 57.402 20.7496 57.1804C20.7496 56.9929 20.6772 56.8381 20.5323 56.7159C20.3903 56.5937 20.1687 56.5 19.8675 56.4347L18.7511 56.2003C18.1232 56.0696 17.6587 55.8494 17.3576 55.5398C17.0565 55.2273 16.9073 54.8324 16.9101 54.3551C16.9073 53.9517 17.0167 53.6023 17.2383 53.3068C17.4627 53.0085 17.7738 52.7784 18.1715 52.6165C18.5721 52.4517 19.0337 52.3693 19.5565 52.3693C20.3235 52.3693 20.9272 52.5327 21.3675 52.8594C21.8107 53.1861 22.0849 53.6278 22.19 54.1847ZM27.1111 52.4545V53.6477H23.3483V52.4545H27.1111ZM24.2773 50.8864H25.8199V57.0312C25.8199 57.2386 25.8511 57.3977 25.9136 57.5085C25.979 57.6165 26.0642 57.6903 26.1693 57.7301C26.2744 57.7699 26.3909 57.7898 26.5188 57.7898C26.6153 57.7898 26.7034 57.7827 26.783 57.7685C26.8653 57.7543 26.9278 57.7415 26.9705 57.7301L27.2304 58.9361C27.148 58.9645 27.0301 58.9957 26.8767 59.0298C26.7261 59.0639 26.5415 59.0838 26.3227 59.0895C25.9364 59.1009 25.5884 59.0426 25.2787 58.9148C24.969 58.7841 24.7233 58.5824 24.5415 58.3097C24.3625 58.0369 24.2744 57.696 24.2773 57.2869V50.8864ZM30.5247 59.1321C30.11 59.1321 29.7364 59.0582 29.404 58.9105C29.0744 58.7599 28.8131 58.5384 28.6199 58.2457C28.4296 57.9531 28.3344 57.5923 28.3344 57.1634C28.3344 56.794 28.4026 56.4886 28.5389 56.2472C28.6753 56.0057 28.8614 55.8125 29.0972 55.6676C29.333 55.5227 29.5986 55.4134 29.894 55.3395C30.1923 55.2628 30.5006 55.2074 30.8188 55.1733C31.2023 55.1335 31.5134 55.098 31.752 55.0668C31.9906 55.0327 32.1639 54.9815 32.2719 54.9134C32.3827 54.8423 32.4381 54.733 32.4381 54.5852V54.5597C32.4381 54.2386 32.3429 53.9901 32.1526 53.8139C31.9622 53.6378 31.6881 53.5497 31.3301 53.5497C30.9523 53.5497 30.6526 53.6321 30.431 53.7969C30.2122 53.9616 30.0645 54.1562 29.9878 54.3807L28.5475 54.1761C28.6611 53.7784 28.8486 53.446 29.11 53.179C29.3713 52.9091 29.6909 52.7074 30.0688 52.5739C30.4466 52.4375 30.8642 52.3693 31.3216 52.3693C31.6369 52.3693 31.9509 52.4062 32.2634 52.4801C32.5759 52.554 32.8614 52.6761 33.1199 52.8466C33.3784 53.0142 33.5858 53.2429 33.7421 53.5327C33.9012 53.8224 33.9807 54.1847 33.9807 54.6193V59H32.4977V58.1009H32.4466C32.3529 58.2827 32.2208 58.4531 32.0503 58.6122C31.8827 58.7685 31.671 58.8949 31.4154 58.9915C31.1625 59.0852 30.8656 59.1321 30.5247 59.1321ZM30.9253 57.9986C31.235 57.9986 31.5034 57.9375 31.7307 57.8153C31.958 57.6903 32.1327 57.5256 32.2548 57.321C32.3798 57.1165 32.4423 56.8935 32.4423 56.652V55.8807C32.394 55.9205 32.3117 55.9574 32.1952 55.9915C32.0815 56.0256 31.9537 56.0554 31.8117 56.081C31.6696 56.1065 31.529 56.1293 31.3898 56.1491C31.2506 56.169 31.1298 56.1861 31.0276 56.2003C30.7975 56.2315 30.5915 56.2827 30.4097 56.3537C30.2279 56.4247 30.0844 56.5241 29.9793 56.652C29.8742 56.777 29.8216 56.9389 29.8216 57.1378C29.8216 57.4219 29.9253 57.6364 30.1327 57.7812C30.3401 57.9261 30.6043 57.9986 30.9253 57.9986ZM38.6184 61.5909C38.0644 61.5909 37.5886 61.5156 37.1909 61.3651C36.7931 61.2173 36.4735 61.0185 36.2321 60.7685C35.9906 60.5185 35.823 60.2415 35.7292 59.9375L37.1184 59.6009C37.1809 59.7287 37.2718 59.8551 37.3912 59.9801C37.5105 60.108 37.671 60.2131 37.8727 60.2955C38.0772 60.3807 38.3343 60.4233 38.644 60.4233C39.0815 60.4233 39.4437 60.3168 39.7306 60.1037C40.0176 59.8935 40.161 59.5469 40.161 59.0639V57.8239H40.0843C40.0048 57.983 39.8883 58.1463 39.7349 58.3139C39.5843 58.4815 39.3841 58.6222 39.1341 58.7358C38.8869 58.8494 38.5758 58.9062 38.2008 58.9062C37.698 58.9062 37.242 58.7884 36.8329 58.5526C36.4267 58.3139 36.1028 57.9588 35.8613 57.4872C35.6227 57.0128 35.5034 56.419 35.5034 55.706C35.5034 54.9872 35.6227 54.3807 35.8613 53.8864C36.1028 53.3892 36.4281 53.0128 36.8372 52.7571C37.2463 52.4986 37.7022 52.3693 38.2051 52.3693C38.5886 52.3693 38.9039 52.4347 39.1511 52.5653C39.4011 52.6932 39.6 52.848 39.7477 53.0298C39.8954 53.2088 40.0076 53.3778 40.0843 53.5369H40.1696V52.4545H41.6909V59.1065C41.6909 59.6662 41.5573 60.1293 41.2903 60.4957C41.0233 60.8622 40.6582 61.1364 40.1951 61.3182C39.7321 61.5 39.2065 61.5909 38.6184 61.5909ZM38.6312 57.696C38.9579 57.696 39.2363 57.6165 39.4664 57.4574C39.6966 57.2983 39.8713 57.0696 39.9906 56.7713C40.1099 56.473 40.1696 56.1151 40.1696 55.6974C40.1696 55.2855 40.1099 54.9247 39.9906 54.6151C39.8741 54.3054 39.7008 54.0653 39.4707 53.8949C39.2434 53.7216 38.9636 53.6349 38.6312 53.6349C38.2875 53.6349 38.0005 53.7244 37.7704 53.9034C37.5403 54.0824 37.367 54.3281 37.2505 54.6406C37.1341 54.9503 37.0758 55.3026 37.0758 55.6974C37.0758 56.098 37.1341 56.4489 37.2505 56.75C37.3698 57.0483 37.5446 57.2812 37.7747 57.4489C38.0076 57.6136 38.2931 57.696 38.6312 57.696ZM43.5118 59V52.4545H45.0076V53.5455H45.0758C45.1951 53.1676 45.3996 52.8764 45.6894 52.6719C45.982 52.4645 46.3158 52.3608 46.6908 52.3608C46.776 52.3608 46.8712 52.3651 46.9763 52.3736C47.0843 52.3793 47.1738 52.3892 47.2448 52.4034V53.8224C47.1794 53.7997 47.0758 53.7798 46.9337 53.7628C46.7945 53.7429 46.6596 53.733 46.5289 53.733C46.2476 53.733 45.9948 53.794 45.7704 53.9162C45.5488 54.0355 45.374 54.2017 45.2462 54.4148C45.1184 54.6278 45.0544 54.8736 45.0544 55.152V59H43.5118ZM50.276 59.1321C49.8612 59.1321 49.4876 59.0582 49.1552 58.9105C48.8257 58.7599 48.5643 58.5384 48.3712 58.2457C48.1808 57.9531 48.0856 57.5923 48.0856 57.1634C48.0856 56.794 48.1538 56.4886 48.2902 56.2472C48.4266 56.0057 48.6126 55.8125 48.8484 55.6676C49.0842 55.5227 49.3498 55.4134 49.6453 55.3395C49.9436 55.2628 50.2518 55.2074 50.57 55.1733C50.9535 55.1335 51.2646 55.098 51.5033 55.0668C51.7419 55.0327 51.9152 54.9815 52.0231 54.9134C52.1339 54.8423 52.1893 54.733 52.1893 54.5852V54.5597C52.1893 54.2386 52.0942 53.9901 51.9038 53.8139C51.7135 53.6378 51.4393 53.5497 51.0814 53.5497C50.7035 53.5497 50.4038 53.6321 50.1822 53.7969C49.9635 53.9616 49.8158 54.1562 49.7391 54.3807L48.2987 54.1761C48.4123 53.7784 48.5998 53.446 48.8612 53.179C49.1226 52.9091 49.4422 52.7074 49.82 52.5739C50.1979 52.4375 50.6155 52.3693 51.0729 52.3693C51.3882 52.3693 51.7021 52.4062 52.0146 52.4801C52.3271 52.554 52.6126 52.6761 52.8712 52.8466C53.1297 53.0142 53.3371 53.2429 53.4933 53.5327C53.6524 53.8224 53.7319 54.1847 53.7319 54.6193V59H52.249V58.1009H52.1979C52.1041 58.2827 51.972 58.4531 51.8016 58.6122C51.6339 58.7685 51.4223 58.8949 51.1666 58.9915C50.9138 59.0852 50.6169 59.1321 50.276 59.1321ZM50.6766 57.9986C50.9862 57.9986 51.2547 57.9375 51.4819 57.8153C51.7092 57.6903 51.8839 57.5256 52.0061 57.321C52.1311 57.1165 52.1936 56.8935 52.1936 56.652V55.8807C52.1453 55.9205 52.0629 55.9574 51.9464 55.9915C51.8328 56.0256 51.705 56.0554 51.5629 56.081C51.4209 56.1065 51.2802 56.1293 51.141 56.1491C51.0018 56.169 50.8811 56.1861 50.7788 56.2003C50.5487 56.2315 50.3427 56.2827 50.1609 56.3537C49.9791 56.4247 49.8356 56.5241 49.7305 56.652C49.6254 56.777 49.5729 56.9389 49.5729 57.1378C49.5729 57.4219 49.6766 57.6364 49.8839 57.7812C50.0913 57.9261 50.3555 57.9986 50.6766 57.9986ZM55.5231 59V52.4545H56.9975V53.5668H57.0742C57.2106 53.1918 57.4364 52.8991 57.7518 52.6889C58.0671 52.4759 58.4435 52.3693 58.881 52.3693C59.3242 52.3693 59.6978 52.4773 60.0018 52.6932C60.3086 52.9062 60.5245 53.1974 60.6495 53.5668H60.7177C60.8626 53.2031 61.1069 52.9134 61.4506 52.6974C61.7972 52.4787 62.2077 52.3693 62.6822 52.3693C63.2844 52.3693 63.7759 52.5597 64.1566 52.9403C64.5373 53.321 64.7276 53.8764 64.7276 54.6065V59H63.1808V54.8452C63.1808 54.4389 63.0728 54.142 62.8569 53.9545C62.641 53.7642 62.3768 53.669 62.0643 53.669C61.6921 53.669 61.4009 53.7855 61.1907 54.0185C60.9833 54.2486 60.8796 54.5483 60.8796 54.9176V59H59.3668V54.7812C59.3668 54.4432 59.2646 54.1733 59.06 53.9716C58.8583 53.7699 58.5941 53.669 58.2674 53.669C58.0458 53.669 57.8441 53.7259 57.6623 53.8395C57.4805 53.9503 57.3356 54.108 57.2276 54.3125C57.1197 54.5142 57.0657 54.75 57.0657 55.0199V59H55.5231Z" fill="#FAFAFA"/>
<g clip-path="url(#clip1_1959_32289)">
<g clip-path="url(#clip2_1959_32289)">
<path d="M85.4708 54.7682C85.4895 54.7242 85.4994 54.6771 85.5 54.6293C85.4991 54.5804 85.4892 54.5321 85.4708 54.4867C85.4519 54.4429 85.4245 54.4031 85.3903 54.3698L80.1269 49.1063C80.0584 49.0382 79.9657 49 79.8692 49C79.7726 49 79.68 49.0382 79.6115 49.1063C79.5434 49.1748 79.5052 49.2674 79.5052 49.364C79.5052 49.4605 79.5434 49.5532 79.6115 49.6217L84.2499 54.2638H73.8655C73.7686 54.2638 73.6756 54.3023 73.6071 54.3708C73.5385 54.4394 73.5 54.5323 73.5 54.6293C73.5 54.7262 73.5385 54.8192 73.6071 54.8878C73.6756 54.9563 73.7686 54.9948 73.8655 54.9948H84.2499L79.6115 59.6332C79.5772 59.6672 79.55 59.7077 79.5315 59.7522C79.5129 59.7967 79.5034 59.8445 79.5034 59.8928C79.5034 59.941 79.5129 59.9888 79.5315 60.0333C79.55 60.0779 79.5772 60.1183 79.6115 60.1523C79.6796 60.2198 79.7715 60.2579 79.8673 60.2583C79.9155 60.2586 79.9631 60.2493 80.0077 60.2312C80.0522 60.213 80.0927 60.1862 80.1269 60.1523L85.3903 54.8888C85.4249 54.8544 85.4523 54.8134 85.4708 54.7682Z" fill="#FAFAFA"/>
</g>
</g>
<defs>
<clipPath id="clip0_1959_32289">
<rect width="40" height="40" fill="white" transform="translate(25)"/>
</clipPath>
<clipPath id="clip1_1959_32289">
<rect width="12" height="12" fill="white" transform="translate(73.5 49)"/>
</clipPath>
<clipPath id="clip2_1959_32289">
<rect width="12" height="11.2617" fill="white" transform="translate(73.5 49)"/>
</clipPath>
</defs>
</svg>
