<?xml version="1.0" encoding="utf-8"?>
<!-- Generator: Adobe Illustrator 22.1.0, SVG Export Plug-In . SVG Version: 6.00 Build 0)  -->
<!DOCTYPE svg PUBLIC "-//W3C//DTD SVG 1.1//EN" "http://www.w3.org/Graphics/SVG/1.1/DTD/svg11.dtd" [
	<!ENTITY st0 "fill:#FF0000;">
	<!ENTITY st1 "fill:#FFFFFF;">
]>
<svg version="1.1" id="レイヤー_1" xmlns="http://www.w3.org/2000/svg" xmlns:xlink="http://www.w3.org/1999/xlink" x="0px"
	 y="0px" viewBox="0 0 49.8 34.9" style="enable-background:new 0 0 49.8 34.9;" xml:space="preserve">
<g>
	<g>
		<path style="&st0;" d="M48.8,5.4c-0.6-2.1-2.3-3.8-4.4-4.4c-3.9-1-19.5-1-19.5-1S9.3,0,5.4,1C3.3,1.6,1.6,3.3,1,5.4
			c-1,3.9-1,12-1,12s0,8.1,1,12c0.6,2.1,2.3,3.8,4.4,4.4c3.9,1,19.5,1,19.5,1s15.6,0,19.5-1c2.1-0.6,3.8-2.3,4.4-4.4
			c1-3.9,1-12,1-12S49.8,9.3,48.8,5.4z"/>
		<polygon style="&st1;" points="19.9,24.9 32.9,17.4 19.9,10 		"/>
	</g>
</g>
</svg>
